REM DIRINDEX 1\2,1\3,1\4,1\5
REM DIRNAME cjc004,folder01,folder02,folder03,folder04
TITLE ""
FILE "1Q_t_0293-0302.mp3" MP3
  TRACK 01 AUDIO
    TITLE "3:cjc004_1780"
    INDEX 01 00:00:00
  TRACK 02 AUDIO
    TITLE "0:"
    INDEX 01 00:00:62
  TRACK 03 AUDIO
    TITLE "4:cjc004_1781"
    INDEX 01 00:01:17
  TRACK 04 AUDIO
    TITLE "0:"
    INDEX 01 00:02:26
  TRACK 05 AUDIO
    TITLE "5:cjc004_1782"
    INDEX 01 00:02:49
  TRACK 06 AUDIO
    TITLE "0:"
    INDEX 01 00:06:20
  TRACK 07 AUDIO
    TITLE "3:cjc004_1783"
    INDEX 01 00:07:00
  TRACK 08 AUDIO
    TITLE "0:"
    INDEX 01 00:07:74
  TRACK 09 AUDIO
    TITLE "4:cjc004_1784"
    INDEX 01 00:08:32
  TRACK 10 AUDIO
    TITLE "0:"
    INDEX 01 00:09:40
  TRACK 11 AUDIO
    TITLE "5:cjc004_1785"
    INDEX 01 00:09:67
  TRACK 12 AUDIO
    TITLE "0:"
    INDEX 01 00:14:56
  TRACK 13 AUDIO
    TITLE "3:cjc004_1786"
    INDEX 01 00:15:38
  TRACK 14 AUDIO
    TITLE "0:"
    INDEX 01 00:16:38
  TRACK 15 AUDIO
    TITLE "4:cjc004_1787"
    INDEX 01 00:17:00
  TRACK 16 AUDIO
    TITLE "0:"
    INDEX 01 00:18:13
  TRACK 17 AUDIO
    TITLE "5:cjc004_1788"
    INDEX 01 00:18:44
  TRACK 18 AUDIO
    TITLE "0:"
    INDEX 01 00:22:58
  TRACK 19 AUDIO
    TITLE "3:cjc004_1789"
    INDEX 01 00:23:40
  TRACK 20 AUDIO
    TITLE "0:"
    INDEX 01 00:24:47
  TRACK 21 AUDIO
    TITLE "4:cjc004_1790"
    INDEX 01 00:25:05
  TRACK 22 AUDIO
    TITLE "0:"
    INDEX 01 00:26:28
  TRACK 23 AUDIO
    TITLE "5:cjc004_1791"
    INDEX 01 00:26:54
  TRACK 24 AUDIO
    TITLE "0:"
    INDEX 01 00:30:54
  TRACK 25 AUDIO
    TITLE "3:cjc004_1792"
    INDEX 01 00:31:37
  TRACK 26 AUDIO
    TITLE "0:"
    INDEX 01 00:32:47
  TRACK 27 AUDIO
    TITLE "4:cjc004_1793"
    INDEX 01 00:32:66
  TRACK 28 AUDIO
    TITLE "0:"
    INDEX 01 00:34:14
  TRACK 29 AUDIO
    TITLE "5:cjc004_1794"
    INDEX 01 00:34:43
  TRACK 30 AUDIO
    TITLE "0:"
    INDEX 01 00:40:30
  TRACK 31 AUDIO
    TITLE "3:cjc004_1795"
    INDEX 01 00:41:14
  TRACK 32 AUDIO
    TITLE "0:"
    INDEX 01 00:42:41
  TRACK 33 AUDIO
    TITLE "4:cjc004_1796"
    INDEX 01 00:42:68
  TRACK 34 AUDIO
    TITLE "0:"
    INDEX 01 00:44:11
  TRACK 35 AUDIO
    TITLE "5:cjc004_1797"
    INDEX 01 00:44:40
  TRACK 36 AUDIO
    TITLE "0:"
    INDEX 01 00:48:53
  TRACK 37 AUDIO
    TITLE "3:cjc004_1798"
    INDEX 01 00:49:37
  TRACK 38 AUDIO
    TITLE "0:"
    INDEX 01 00:50:50
  TRACK 39 AUDIO
    TITLE "4:cjc004_1799"
    INDEX 01 00:51:01
  TRACK 40 AUDIO
    TITLE "0:"
    INDEX 01 00:52:14
  TRACK 41 AUDIO
    TITLE "5:cjc004_1800"
    INDEX 01 00:52:41
  TRACK 42 AUDIO
    TITLE "0:"
    INDEX 01 00:57:11
  TRACK 43 AUDIO
    TITLE "3:cjc004_1801"
    INDEX 01 00:57:66
  TRACK 44 AUDIO
    TITLE "0:"
    INDEX 01 00:59:28
  TRACK 45 AUDIO
    TITLE "4:cjc004_1802"
    INDEX 01 00:59:57
  TRACK 46 AUDIO
    TITLE "0:"
    INDEX 01 01:01:40
  TRACK 47 AUDIO
    TITLE "5:cjc004_1803"
    INDEX 01 01:01:68
  TRACK 48 AUDIO
    TITLE "0:"
    INDEX 01 01:05:58
  TRACK 49 AUDIO
    TITLE "3:cjc004_1804"
    INDEX 01 01:06:42
  TRACK 50 AUDIO
    TITLE "0:"
    INDEX 01 01:07:59
  TRACK 51 AUDIO
    TITLE "4:cjc004_1805"
    INDEX 01 01:08:13
  TRACK 52 AUDIO
    TITLE "0:"
    INDEX 01 01:09:44
  TRACK 53 AUDIO
    TITLE "5:cjc004_1806"
    INDEX 01 01:09:67
  TRACK 54 AUDIO
    TITLE "0:"
    INDEX 01 01:14:21
  TRACK 55 AUDIO
    TITLE "3:cjc004_1807"
    INDEX 01 01:15:05
  TRACK 56 AUDIO
    TITLE "0:"
    INDEX 01 01:16:16
  TRACK 57 AUDIO
    TITLE "4:cjc004_1808"
    INDEX 01 01:16:50
  TRACK 58 AUDIO
    TITLE "0:"
    INDEX 01 01:18:13
  TRACK 59 AUDIO
    TITLE "5:cjc004_1809"
    INDEX 01 01:18:41
  TRACK 60 AUDIO
    TITLE "0:"
    INDEX 01 01:22:70
